<mxfile host="65bd71144e">
    <diagram name="Page-1" id="9361dd3d-8414-5efd-6122-117bd74ce7a7">
        <mxGraphModel dx="634" dy="1117" grid="1" gridSize="10" guides="1" tooltips="1" connect="1" arrows="1" fold="1" page="0" pageScale="1.5" pageWidth="826" pageHeight="1169" background="none" math="0" shadow="0">
            <root>
                <mxCell id="0"/>
                <mxCell id="1" parent="0"/>
                <mxCell id="69" value="" style="fillColor=#DEE8FF;strokeColor=none" parent="1" vertex="1">
                    <mxGeometry x="10" y="10" width="600" height="630" as="geometry"/>
                </mxCell>
                <mxCell id="20" value="" style="fillColor=#CCD5EB" parent="1" vertex="1">
                    <mxGeometry x="130" y="150" width="120" height="130" as="geometry"/>
                </mxCell>
                <mxCell id="2" value="" style="fillColor=#CC4125;strokeColor=#660000" parent="1" vertex="1">
                    <mxGeometry x="200" y="150" width="10" height="190" as="geometry"/>
                </mxCell>
                <mxCell id="3" value="Top Service Execution Start" style="edgeStyle=none;verticalLabelPosition=top;verticalAlign=bottom;labelPosition=left;align=right;strokeColor=#000000;" parent="1" edge="1">
                    <mxGeometry width="100" height="100" as="geometry">
                        <mxPoint x="110" y="149.5" as="sourcePoint"/>
                        <mxPoint x="200" y="149.5" as="targetPoint"/>
                        <mxPoint x="35" as="offset"/>
                    </mxGeometry>
                </mxCell>
                <mxCell id="4" value="wM.Io" style="shadow=1;fillColor=#A2C4C9;strokeColor=none" parent="1" vertex="1">
                    <mxGeometry x="152.5" y="50" width="105" height="60" as="geometry"/>
                </mxCell>
                <mxCell id="6" value="" style="fillColor=#CC4125;strokeColor=#660000" parent="1" vertex="1">
                    <mxGeometry x="422.5" y="180" width="10" height="160" as="geometry"/>
                </mxCell>
                <mxCell id="7" value="Rest Application" style="shadow=1;fillColor=#A2C4C9;strokeColor=none" parent="1" vertex="1">
                    <mxGeometry x="340" y="50" width="170" height="60" as="geometry"/>
                </mxCell>
                <mxCell id="8" value="" style="edgeStyle=none;endArrow=none;dashed=1;strokeColor=#000000;" parent="1" source="7" target="6" edge="1">
                    <mxGeometry x="344.2750694444445" y="165" width="100" height="100" as="geometry">
                        <mxPoint x="419.1988734567901" y="110" as="sourcePoint"/>
                        <mxPoint x="419.5161959876544" y="165" as="targetPoint"/>
                    </mxGeometry>
                </mxCell>
                <mxCell id="9" value="getToken" style="edgeStyle=none;verticalLabelPosition=top;verticalAlign=bottom;entryX=0;entryY=0.25;entryDx=0;entryDy=0;strokeColor=#000000;" parent="1" target="MfyREDOW3S-gaBmKVNz4-100" edge="1">
                    <mxGeometry x="220" y="92" width="100" height="100" as="geometry">
                        <mxPoint x="210" y="179.5" as="sourcePoint"/>
                        <mxPoint x="340" y="179.5" as="targetPoint"/>
                    </mxGeometry>
                </mxCell>
                <mxCell id="12" value="" style="edgeStyle=none;verticalLabelPosition=top;verticalAlign=bottom;labelPosition=left;align=right;endArrow=none;startArrow=classic;strokeColor=#000000;" parent="1" edge="1">
                    <mxGeometry x="110" y="179.75887345679013" width="100" height="100" as="geometry">
                        <mxPoint x="110" y="279.7588734567901" as="sourcePoint"/>
                        <mxPoint x="200" y="279.7588734567901" as="targetPoint"/>
                    </mxGeometry>
                </mxCell>
                <mxCell id="MfyREDOW3S-gaBmKVNz4-91" value="Top Service ExecutionEnd" style="edgeLabel;html=1;align=center;verticalAlign=middle;resizable=0;points=[];" parent="12" vertex="1" connectable="0">
                    <mxGeometry relative="1" as="geometry">
                        <mxPoint x="-35" y="-10" as="offset"/>
                    </mxGeometry>
                </mxCell>
                <mxCell id="33" value="" style="edgeStyle=elbowEdgeStyle;elbow=horizontal;endArrow=none;dashed=1;strokeColor=#000000;" parent="1" source="4" target="2" edge="1">
                    <mxGeometry x="230.00000000000003" y="310" width="100" height="100" as="geometry">
                        <mxPoint x="230.00000000000003" y="410" as="sourcePoint"/>
                        <mxPoint x="330" y="310" as="targetPoint"/>
                    </mxGeometry>
                </mxCell>
                <mxCell id="47" value="Service Execution A" style="edgeStyle=elbowEdgeStyle;elbow=horizontal;startArrow=open;endArrow=open;labelPosition=left;align=right;strokeColor=#000000;" parent="1" edge="1">
                    <mxGeometry x="62" y="-110" width="100" height="100" as="geometry">
                        <mxPoint x="180.20563271604937" y="170" as="sourcePoint"/>
                        <mxPoint x="180.20563271604937" y="250" as="targetPoint"/>
                        <mxPoint as="offset"/>
                    </mxGeometry>
                </mxCell>
                <mxCell id="71" value="Usecase Flow" style="rounded=1;fontStyle=1;fillColor=#FFD966;strokeColor=none" parent="1" vertex="1">
                    <mxGeometry x="50" y="20" width="150" height="30" as="geometry"/>
                </mxCell>
                <mxCell id="MfyREDOW3S-gaBmKVNz4-93" value="Application API  1 (Token T1)" style="edgeStyle=none;verticalLabelPosition=top;verticalAlign=bottom;strokeColor=#000000;" parent="1" edge="1">
                    <mxGeometry width="100" height="100" as="geometry">
                        <mxPoint x="210" y="228" as="sourcePoint"/>
                        <mxPoint x="420" y="228" as="targetPoint"/>
                        <mxPoint x="5" y="1" as="offset"/>
                    </mxGeometry>
                </mxCell>
                <mxCell id="MfyREDOW3S-gaBmKVNz4-94" value="" style="edgeStyle=none;verticalLabelPosition=top;verticalAlign=bottom;strokeColor=#000000;" parent="1" edge="1">
                    <mxGeometry x="222.5" y="150.5" width="100" height="100" as="geometry">
                        <mxPoint x="422.5" y="239" as="sourcePoint"/>
                        <mxPoint x="210" y="240" as="targetPoint"/>
                    </mxGeometry>
                </mxCell>
                <mxCell id="MfyREDOW3S-gaBmKVNz4-95" value="OAUTH Provider" style="rounded=1;fontStyle=0;fillColor=#FFD966;strokeColor=none" parent="1" vertex="1">
                    <mxGeometry x="340" y="90" width="110" height="20" as="geometry"/>
                </mxCell>
                <mxCell id="MfyREDOW3S-gaBmKVNz4-96" value="Application API  2 (Token T1)" style="edgeStyle=none;verticalLabelPosition=top;verticalAlign=bottom;strokeColor=#000000;" parent="1" edge="1">
                    <mxGeometry x="1" y="33" width="100" height="100" as="geometry">
                        <mxPoint x="211" y="261" as="sourcePoint"/>
                        <mxPoint x="421" y="261" as="targetPoint"/>
                        <mxPoint x="5" y="1" as="offset"/>
                    </mxGeometry>
                </mxCell>
                <mxCell id="MfyREDOW3S-gaBmKVNz4-97" value="" style="edgeStyle=none;verticalLabelPosition=top;verticalAlign=bottom;strokeColor=#000000;" parent="1" edge="1">
                    <mxGeometry x="223.5" y="183.5" width="100" height="100" as="geometry">
                        <mxPoint x="423.5" y="272" as="sourcePoint"/>
                        <mxPoint x="211" y="273" as="targetPoint"/>
                    </mxGeometry>
                </mxCell>
                <mxCell id="MfyREDOW3S-gaBmKVNz4-99" value="" style="edgeStyle=none;endArrow=none;dashed=1;strokeColor=#000000;" parent="1" edge="1">
                    <mxGeometry x="311.2750694444445" y="165" width="100" height="100" as="geometry">
                        <mxPoint x="394.5" y="110" as="sourcePoint"/>
                        <mxPoint x="394.5" y="180" as="targetPoint"/>
                    </mxGeometry>
                </mxCell>
                <mxCell id="MfyREDOW3S-gaBmKVNz4-100" value="" style="fillColor=#CC4125;strokeColor=#660000" parent="1" vertex="1">
                    <mxGeometry x="390" y="165" width="10" height="55" as="geometry"/>
                </mxCell>
                <mxCell id="MfyREDOW3S-gaBmKVNz4-101" value="" style="edgeStyle=none;verticalLabelPosition=top;verticalAlign=bottom;endArrow=none;startArrow=classic;dashed=1;exitX=0.9;exitY=0.205;exitDx=0;exitDy=0;exitPerimeter=0;strokeColor=#000000;" parent="1" source="2" edge="1">
                    <mxGeometry x="220" y="172.25887345679013" width="100" height="100" as="geometry">
                        <mxPoint x="209" y="188.95000000000005" as="sourcePoint"/>
                        <mxPoint x="390" y="189" as="targetPoint"/>
                    </mxGeometry>
                </mxCell>
                <mxCell id="MfyREDOW3S-gaBmKVNz4-102" value="Token T1" style="edgeLabel;html=1;align=center;verticalAlign=middle;resizable=0;points=[];" parent="MfyREDOW3S-gaBmKVNz4-101" vertex="1" connectable="0">
                    <mxGeometry relative="1" as="geometry">
                        <mxPoint x="2" y="6" as="offset"/>
                    </mxGeometry>
                </mxCell>
                <mxCell id="MfyREDOW3S-gaBmKVNz4-103" value="" style="fillColor=#CCD5EB" parent="1" vertex="1">
                    <mxGeometry x="130" y="388" width="120" height="130" as="geometry"/>
                </mxCell>
                <mxCell id="MfyREDOW3S-gaBmKVNz4-104" value="" style="fillColor=#CC4125;strokeColor=#660000" parent="1" vertex="1">
                    <mxGeometry x="200" y="388" width="10" height="190" as="geometry"/>
                </mxCell>
                <mxCell id="MfyREDOW3S-gaBmKVNz4-105" value="Top Service Execution Start" style="edgeStyle=none;verticalLabelPosition=top;verticalAlign=bottom;labelPosition=left;align=right;strokeColor=#000000;" parent="1" edge="1">
                    <mxGeometry y="238" width="100" height="100" as="geometry">
                        <mxPoint x="110" y="387.5" as="sourcePoint"/>
                        <mxPoint x="200" y="387.5" as="targetPoint"/>
                        <mxPoint x="35" as="offset"/>
                    </mxGeometry>
                </mxCell>
                <mxCell id="MfyREDOW3S-gaBmKVNz4-106" value="" style="fillColor=#CC4125;strokeColor=#660000" parent="1" vertex="1">
                    <mxGeometry x="422.5" y="418" width="10" height="160" as="geometry"/>
                </mxCell>
                <mxCell id="MfyREDOW3S-gaBmKVNz4-107" value="" style="edgeStyle=none;endArrow=none;dashed=1;exitX=0.5;exitY=1;exitDx=0;exitDy=0;strokeColor=#000000;" parent="1" source="6" target="MfyREDOW3S-gaBmKVNz4-106" edge="1">
                    <mxGeometry x="344.2750694444445" y="403" width="100" height="100" as="geometry">
                        <mxPoint x="425.4166666666665" y="348" as="sourcePoint"/>
                        <mxPoint x="419.5161959876544" y="403" as="targetPoint"/>
                    </mxGeometry>
                </mxCell>
                <mxCell id="MfyREDOW3S-gaBmKVNz4-108" value="getToken" style="edgeStyle=none;verticalLabelPosition=top;verticalAlign=bottom;entryX=0;entryY=0.25;entryDx=0;entryDy=0;strokeColor=#000000;" parent="1" target="MfyREDOW3S-gaBmKVNz4-118" edge="1">
                    <mxGeometry x="220" y="330" width="100" height="100" as="geometry">
                        <mxPoint x="210" y="417.5" as="sourcePoint"/>
                        <mxPoint x="340" y="417.5" as="targetPoint"/>
                    </mxGeometry>
                </mxCell>
                <mxCell id="MfyREDOW3S-gaBmKVNz4-109" value="" style="edgeStyle=none;verticalLabelPosition=top;verticalAlign=bottom;labelPosition=left;align=right;endArrow=none;startArrow=classic;strokeColor=#000000;" parent="1" edge="1">
                    <mxGeometry x="110" y="417.7588734567901" width="100" height="100" as="geometry">
                        <mxPoint x="110" y="517.7588734567901" as="sourcePoint"/>
                        <mxPoint x="200" y="517.7588734567901" as="targetPoint"/>
                    </mxGeometry>
                </mxCell>
                <mxCell id="MfyREDOW3S-gaBmKVNz4-110" value="Top Service ExecutionEnd" style="edgeLabel;html=1;align=center;verticalAlign=middle;resizable=0;points=[];" parent="MfyREDOW3S-gaBmKVNz4-109" vertex="1" connectable="0">
                    <mxGeometry relative="1" as="geometry">
                        <mxPoint x="-35" y="-10" as="offset"/>
                    </mxGeometry>
                </mxCell>
                <mxCell id="MfyREDOW3S-gaBmKVNz4-111" value="" style="edgeStyle=elbowEdgeStyle;elbow=horizontal;endArrow=none;dashed=1;exitX=0.5;exitY=1;exitDx=0;exitDy=0;strokeColor=#000000;" parent="1" source="2" target="MfyREDOW3S-gaBmKVNz4-104" edge="1">
                    <mxGeometry x="230.00000000000003" y="548" width="100" height="100" as="geometry">
                        <mxPoint x="205" y="348" as="sourcePoint"/>
                        <mxPoint x="330" y="548" as="targetPoint"/>
                    </mxGeometry>
                </mxCell>
                <mxCell id="MfyREDOW3S-gaBmKVNz4-112" value="Service Execution B" style="edgeStyle=elbowEdgeStyle;elbow=vertical;startArrow=open;endArrow=open;labelPosition=left;align=right;strokeColor=#000000;" parent="1" edge="1">
                    <mxGeometry x="62" y="129" width="100" height="100" as="geometry">
                        <mxPoint x="180.20563271604942" y="409" as="sourcePoint"/>
                        <mxPoint x="180.20563271604942" y="489" as="targetPoint"/>
                        <mxPoint as="offset"/>
                    </mxGeometry>
                </mxCell>
                <mxCell id="MfyREDOW3S-gaBmKVNz4-113" value="Application API  1 (Token T2" style="edgeStyle=none;verticalLabelPosition=top;verticalAlign=bottom;strokeColor=#000000;" parent="1" edge="1">
                    <mxGeometry y="238" width="100" height="100" as="geometry">
                        <mxPoint x="210" y="466" as="sourcePoint"/>
                        <mxPoint x="420" y="466" as="targetPoint"/>
                        <mxPoint x="5" y="1" as="offset"/>
                    </mxGeometry>
                </mxCell>
                <mxCell id="MfyREDOW3S-gaBmKVNz4-114" value="" style="edgeStyle=none;verticalLabelPosition=top;verticalAlign=bottom;strokeColor=#000000;" parent="1" edge="1">
                    <mxGeometry x="222.5" y="388.5" width="100" height="100" as="geometry">
                        <mxPoint x="422.5" y="477" as="sourcePoint"/>
                        <mxPoint x="210" y="478" as="targetPoint"/>
                    </mxGeometry>
                </mxCell>
                <mxCell id="MfyREDOW3S-gaBmKVNz4-115" value="Application API  2 (Token T2" style="edgeStyle=none;verticalLabelPosition=top;verticalAlign=bottom;strokeColor=#000000;" parent="1" edge="1">
                    <mxGeometry x="1" y="271" width="100" height="100" as="geometry">
                        <mxPoint x="211" y="499" as="sourcePoint"/>
                        <mxPoint x="421" y="499" as="targetPoint"/>
                        <mxPoint x="5" y="1" as="offset"/>
                    </mxGeometry>
                </mxCell>
                <mxCell id="MfyREDOW3S-gaBmKVNz4-116" value="" style="edgeStyle=none;verticalLabelPosition=top;verticalAlign=bottom;strokeColor=#000000;" parent="1" edge="1">
                    <mxGeometry x="223.5" y="421.5" width="100" height="100" as="geometry">
                        <mxPoint x="423.5" y="510" as="sourcePoint"/>
                        <mxPoint x="211" y="511" as="targetPoint"/>
                    </mxGeometry>
                </mxCell>
                <mxCell id="MfyREDOW3S-gaBmKVNz4-117" value="" style="edgeStyle=none;endArrow=none;dashed=1;exitX=0.5;exitY=1;exitDx=0;exitDy=0;strokeColor=#000000;" parent="1" source="MfyREDOW3S-gaBmKVNz4-100" edge="1">
                    <mxGeometry x="311.2750694444445" y="403" width="100" height="100" as="geometry">
                        <mxPoint x="394.5" y="348" as="sourcePoint"/>
                        <mxPoint x="394.5" y="418" as="targetPoint"/>
                    </mxGeometry>
                </mxCell>
                <mxCell id="MfyREDOW3S-gaBmKVNz4-118" value="" style="fillColor=#CC4125;strokeColor=#660000" parent="1" vertex="1">
                    <mxGeometry x="390" y="403" width="10" height="55" as="geometry"/>
                </mxCell>
                <mxCell id="MfyREDOW3S-gaBmKVNz4-119" value="" style="edgeStyle=none;verticalLabelPosition=top;verticalAlign=bottom;endArrow=none;startArrow=classic;dashed=1;exitX=0.9;exitY=0.205;exitDx=0;exitDy=0;exitPerimeter=0;strokeColor=#000000;" parent="1" source="MfyREDOW3S-gaBmKVNz4-104" edge="1">
                    <mxGeometry x="220" y="410.2588734567901" width="100" height="100" as="geometry">
                        <mxPoint x="209" y="426.95000000000005" as="sourcePoint"/>
                        <mxPoint x="390" y="427" as="targetPoint"/>
                    </mxGeometry>
                </mxCell>
                <mxCell id="MfyREDOW3S-gaBmKVNz4-120" value="Token T2" style="edgeLabel;html=1;align=center;verticalAlign=middle;resizable=0;points=[];" parent="MfyREDOW3S-gaBmKVNz4-119" vertex="1" connectable="0">
                    <mxGeometry relative="1" as="geometry">
                        <mxPoint x="2" y="6" as="offset"/>
                    </mxGeometry>
                </mxCell>
            </root>
        </mxGraphModel>
    </diagram>
</mxfile>